# xmcd
#
# Track frame offsets:
#	150
#	17346
#	37732
#	57945
#	79052
#	90352
#	127814
#	148966
#	184057
#	212275
#	233178
#	254458
#	274208
#	291053
#	310570
#	327672
#
# Disc length: 4674 seconds
#
# Revision: 1
# Processed by: cddbd v1.5.2PL0 Copyright (c) Steve Scherf et al.
# Submitted via: audiograbber 1.83.01
#
DISCID=d4124010
DTITLE=Hobo Blues Band - Greatest Hits
DYEAR=2010
DGENRE=Blues
TTITLE0=Mindenki sztár
TTITLE1=Vadember
TTITLE2=3:20-as blues
TTITLE3=Nem hallod, üvöltök!
TTITLE4=Kopaszkutya
TTITLE5=Gyáva bohóc
TTITLE6=Szabadíts fel!
TTITLE7=Nem lehet két hazád
TTITLE8=Mesél az erdõ
TTITLE9=Mata Hari
TTITLE10=A három testõr
TTITLE11=Országút blues
TTITLE12=Rohadt rock and roll
TTITLE13=Üvöltõ vadállat
TTITLE14=Közpeurópai hobo blues 2.
TTITLE15=Halj meg és nagy leszel!
EXTD=
EXTT0=
EXTT1=
EXTT2=
EXTT3=
EXTT4=
EXTT5=
EXTT6=
EXTT7=
EXTT8=
EXTT9=
EXTT10=
EXTT11=
EXTT12=
EXTT13=
EXTT14=
EXTT15=
PLAYORDER=
